# xmcd
#
# Track frame offsets: 
#        150
#        29507
#        39950
#        56252
#        74765
#        95147
#        117887
#        135905
#        157505
#        173792
#        192707
#        227162
#        248665
#        271667
#
# Disc length: 3894 seconds
#
# Revision: 2
# Processed by: cddbd v1.5.2PL0 Copyright (c) Steve Scherf et al.
# Submitted via: ExactAudioCopy v0.99pb5
#
DISCID=b60f340e
DTITLE=Michael Schenker - Anthology Disc 1
DYEAR=2000
DGENRE=Rock
TTITLE0=Rock Bottom
TTITLE1=Lipstick Traces
TTITLE2=Shoot Shoot
TTITLE3=High Flyer
TTITLE4=Belladonna
TTITLE5=On With The Action
TTITLE6=Natural Thing
TTITLE7=Try Me
TTITLE8=Too Hot To Handle
TTITLE9=Only You Can Rock Me
TTITLE10=Love To Love
TTITLE11=Doctor Doctor
TTITLE12=Lights Out
TTITLE13=Lookin' Out For No.1
EXTD=YEAR: 2000
EXTT0=
EXTT1=
EXTT2=
EXTT3=
EXTT4=
EXTT5=
EXTT6=
EXTT7=
EXTT8=
EXTT9=
EXTT10=
EXTT11=
EXTT12=
EXTT13=
PLAYORDER=
